:SAMPLES-PER-SECOND 30
:FULLY-SPECIFIED
:DEGREES
301
root  -0.635115 40.7568 -6.43758 48.7652 87.0384 47.6997
RightUpLeg  3.18901 -10.5561 -8.30887
RightLeg  7.29246 -9.99985 3.2351
RightFoot  -8.66568 -0.0888609 1.30733
RightToes  0.00048216 0.542163 -0.142577
Spine  3.02934 1.6733 -1.00675
Spine1  2.77458 1.70143 0.733871
HEad  15.7435 -9.74557 -1.33546
LeftShoulder1  0.11868 2.32807 -1.56334
LeftArm  -14.9812 23.0494 -7.92757
LeftForeArm  5.46567 -4.82159 -1.79957
LeftHand  -0.25398 0.0180481 5.50724
RightShoulder  0.264368 -1.68769 6.93647
RightArm  -20.7594 -6.84057 2.6971
RightForeArm  -3.96324 -1.37337 2.18121
RightHand  -1.35831 4.19409 -16.6837
LeftUpLeg  1.42361 4.25402 1.23587
LeftLeg  4.89886 11.5697 -2.58281
LeftFoot  -7.00944 0.0927296 -1.33553
LeftToes  1.06243e-005 4.65856e-005 -8.18505e-006
302
root  -0.490214 40.6748 -6.5691 42.2403 86.5057 41.852
RightUpLeg  3.26937 -11.6307 -8.86167
RightLeg  8.97872 -8.11059 2.60185
RightFoot  -9.49695 -0.101209 2.25718
RightToes  0.00048216 0.542163 -0.142577
Spine  3.6227 1.67134 -1.00713
Spine1  2.95886 1.73678 0.379419
HEad  15.6804 -9.87198 -0.973134
LeftShoulder1  0.139879 2.18107 -2.12836
LeftArm  -15.0173 22.612 -7.72952
LeftForeArm  6.03672 -5.00183 -1.83212
LeftHand  -0.25398 0.0180481 5.50724
RightShoulder  0.296365 -1.47268 6.97721
RightArm  -20.6265 -6.29053 2.68331
RightForeArm  -3.13153 -1.10117 2.2691
RightHand  -1.37993 4.17151 -16.9777
LeftUpLeg  1.92862 4.50577 0.834261
LeftLeg  6.14968 11.8765 -2.1333
LeftFoot  -8.30305 0.0868435 -1.39507
LeftToes  1.06243e-005 4.65856e-005 -8.18505e-006
303
root  -0.328991 40.568 -6.7173 38.5274 85.7759 38.8414
RightUpLeg  2.60901 -14.0598 -9.45086
RightLeg  12.0638 -5.06387 1.25335
RightFoot  -10.401 -0.0923971 2.64717
RightToes  0.00048216 0.542163 -0.142577
Spine  4.29565 1.71239 -1.1993
Spine1  3.08676 1.80699 0.0308566
HEad  15.7795 -10.1008 -0.686119
LeftShoulder1  0.178742 1.89707 -2.78826
LeftArm  -15.2679 22.2417 -7.49988
LeftForeArm  6.02126 -5.14683 -1.78004
LeftHand  -0.25398 0.0180481 5.50724
RightShoulder  0.334513 -1.23651 7.1586
RightArm  -20.5296 -5.89991 2.577
RightForeArm  -2.43231 -0.390901 2.40837
RightHand  -1.36377 4.05142 -16.9873
LeftUpLeg  2.51958 4.76599 0.291939
LeftLeg  7.3407 12.2478 -1.80806
LeftFoot  -9.61865 0.0812774 -1.5688
LeftToes  1.06243e-005 4.65856e-005 -8.18505e-006
304
root  -0.174042 40.4255 -6.883 35.938 84.8573 36.9488
RightUpLeg  0.952902 -15.7546 -9.92188
RightLeg  16.671 -2.3201 -0.446489
RightFoot  -11.2545 -0.0767135 3.69025
RightToes  0.00048216 0.542163 -0.142577
Spine  5.14462 1.78098 -1.52729
Spine1  3.15803 1.89066 -0.369835
HEad  15.8723 -10.2305 -0.43171
LeftShoulder1  0.239512 1.48702 -3.67778
LeftArm  -15.8576 22.036 -7.37627
LeftForeArm  5.89202 -5.44117 -1.60517
LeftHand  -0.25398 0.0180481 5.50724
RightShoulder  0.385993 -0.976655 7.73996
RightArm  -20.4155 -5.4767 2.36181
RightForeArm  -2.56654 0.699141 2.68647
RightHand  -1.36915 4.0918 -16.9847
LeftUpLeg  3.01587 5.14989 -0.321164
LeftLeg  8.74622 12.7009 -1.54195
LeftFoot  -11.0708 0.0707527 -1.90026
LeftToes  1.06243e-005 4.65856e-005 -8.18505e-006
305
root  -0.0498121 40.24 -7.06487 32.3477 83.6472 34.174
RightUpLeg  -1.87606 -13.1654 -10.4198
RightLeg  23.248 -2.88861 -1.65812
RightFoot  -11.1394 -0.0935852 6.70992
RightToes  0.00048216 0.542163 -0.142577
Spine  6.43499 1.91466 -1.85929
Spine1  3.18615 2.02552 -0.98794
HEad  15.8229 -10.0956 -0.271505
LeftShoulder1  0.307736 1.12271 -4.89153
LeftArm  -16.7207 21.8581 -7.6634
LeftForeArm  6.17858 -5.87451 -1.36127
LeftHand  -0.25398 0.0180481 5.50724
RightShoulder  0.455387 -0.646166 8.48751
RightArm  -20.1467 -4.99615 2.52316
RightForeArm  -3.94462 1.94934 3.14122
RightHand  -1.45316 4.35144 -17.5306
LeftUpLeg  3.47684 5.77691 -0.875535
LeftLeg  10.5161 13.2823 -1.28597
LeftFoot  -12.76 0.0460036 -2.42865
LeftToes  1.06243e-005 4.65856e-005 -8.18505e-006
306
root  0.0650155 40.0441 -7.25652 27.4856 82.087 30.3261
RightUpLeg  -6.04777 -10.0019 -11.0475
RightLeg  32.1078 -4.05645 -2.9973
RightFoot  -8.43703 -0.301907 9.54221
RightToes  0.00048216 0.542163 -0.142577
Spine  8.19015 2.151 -2.06627
Spine1  3.2209 2.2653 -1.69027
HEad  15.6514 -9.78268 -0.240774
LeftShoulder1  0.362149 0.951491 -6.31804
LeftArm  -17.7463 21.4914 -8.77625
LeftForeArm  6.68727 -6.34549 -1.15219
LeftHand  -0.25398 0.0180481 5.50724
RightShoulder  0.529218 -0.260288 8.92035
RightArm  -19.5171 -4.71602 3.69821
RightForeArm  -5.82127 3.35546 3.74844
RightHand  -1.65849 4.95121 -18.813
LeftUpLeg  4.27766 6.62483 -1.24179
LeftLeg  12.1074 14.0195 -1.18751
LeftFoot  -14.4418 0.00219804 -3.11859
LeftToes  1.06243e-005 4.65856e-005 -8.18505e-006
